<svg width="80" height="50" viewBox="0 0 80 50" fill="none" xmlns="http://www.w3.org/2000/svg">
<path d="M4.56 3.12082C5.696 3.15282 6.528 3.55282 7.056 4.32082C7.584 5.08882 7.848 6.08082 7.848 7.29682V7.58482H7.608V7.29682C7.608 6.12882 7.352 5.18482 6.84 4.46482C6.344 3.72882 5.544 3.36082 4.44 3.36082C3.32 3.36082 2.512 3.72082 2.016 4.44082C1.52 5.16082 1.272 6.10482 1.272 7.27282C1.272 7.94482 1.416 8.53682 1.704 9.04882C2.008 9.56082 2.376 9.99282 2.808 10.3448C3.24 10.6968 3.816 11.1048 4.536 11.5688C5.272 12.0328 5.856 12.4488 6.288 12.8168C6.736 13.1688 7.112 13.6088 7.416 14.1368C7.72 14.6648 7.872 15.2808 7.872 15.9848C7.872 17.2008 7.6 18.1928 7.056 18.9608C6.528 19.7288 5.696 20.1288 4.56 20.1608V21.5528H4.32V20.1608C3.152 20.1448 2.296 19.7528 1.752 18.9848C1.224 18.2168 0.96 17.2168 0.96 15.9848V15.1928H1.2V15.9848C1.2 17.1688 1.456 18.1208 1.968 18.8408C2.48 19.5608 3.296 19.9208 4.416 19.9208C5.536 19.9208 6.352 19.5608 6.864 18.8408C7.376 18.1208 7.632 17.1688 7.632 15.9848C7.632 15.3128 7.488 14.7288 7.2 14.2328C6.912 13.7368 6.552 13.3208 6.12 12.9848C5.704 12.6488 5.136 12.2488 4.416 11.7848C3.664 11.3048 3.064 10.8808 2.616 10.5128C2.168 10.1448 1.792 9.69682 1.488 9.16882C1.184 8.62482 1.032 7.99282 1.032 7.27282C1.032 6.02482 1.296 5.03282 1.824 4.29682C2.368 3.56082 3.2 3.16882 4.32 3.12082V1.56082H4.56V3.12082Z" fill="#181818"/>
<path d="M63.992 34.4735L59.576 45.6735H59.896L64.312 34.4735H63.992ZM71.2106 40.2335V45.6735H71.5626V34.4735H71.2106V39.9135H67.1626V34.4735H66.8106V45.6735H67.1626V40.2335H71.2106ZM74.1219 34.4735V45.6735H74.4739V40.5055H75.8499C77.3059 40.5055 78.2979 40.9375 78.2979 42.5855V44.3455C78.2979 44.8255 78.3459 45.3215 78.5699 45.6735H78.9539C78.6979 45.3215 78.6499 44.7775 78.6499 44.3455V42.5855C78.6499 41.3535 78.1219 40.5375 76.8739 40.3455C78.1059 40.1215 78.6499 39.3695 78.6499 37.9935V36.9855C78.6499 35.4495 78.0099 34.4735 76.3459 34.4735H74.1219ZM74.4739 40.1695V34.8095H76.3299C77.7699 34.8095 78.2979 35.6575 78.2979 37.0175V38.0415C78.2979 39.7695 77.4019 40.1695 75.8499 40.1695H74.4739Z" fill="black"/>
<path d="M20.04 2.7C23.04 2.7 25.22 3.68 26.58 5.64C27.98 7.6 28.68 10.16 28.68 13.32V14.34C28.68 16.34 28.12 18.16 27 19.8C25.88 21.4 24.38 22.48 22.5 23.04C24.5 23.52 26.02 24.52 27.06 26.04C28.14 27.56 28.68 29.36 28.68 31.44V34.62C28.68 37.78 27.98 40.36 26.58 42.36C25.22 44.32 23.04 45.3 20.04 45.3C17.04 45.3 14.84 44.32 13.44 42.36C12.08 40.36 11.4 37.78 11.4 34.62V32.88H12V34.62C12 37.62 12.62 40.06 13.86 41.94C15.14 43.78 17.2 44.7 20.04 44.7C22.88 44.7 24.92 43.78 26.16 41.94C27.44 40.06 28.08 37.62 28.08 34.62V31.44C28.08 29.08 27.44 27.18 26.16 25.74C24.88 24.3 23.08 23.5 20.76 23.34H17.58V22.8H20.76C22.96 22.64 24.72 21.76 26.04 20.16C27.4 18.52 28.08 16.58 28.08 14.34V13.32C28.08 10.32 27.44 7.9 26.16 6.06C24.92 4.18 22.88 3.24 20.04 3.24C17.2 3.24 15.14 4.18 13.86 6.06C12.62 7.9 12 10.32 12 13.32V14.4H11.4V13.32C11.4 10.16 12.08 7.6 13.44 5.64C14.84 3.68 17.04 2.7 20.04 2.7ZM47.1098 2.64C50.1498 2.64 52.3698 3.64 53.7698 5.64C55.2098 7.6 55.9298 10.16 55.9298 13.32V34.62C55.9298 37.78 55.2098 40.36 53.7698 42.36C52.3698 44.32 50.1498 45.3 47.1098 45.3C44.1098 45.3 41.8898 44.34 40.4498 42.42C39.0098 40.46 38.2898 37.92 38.2898 34.8V34.56H38.8898V34.8C38.8898 37.76 39.5498 40.16 40.8698 42C42.1898 43.8 44.2698 44.7 47.1098 44.7C49.9498 44.7 52.0298 43.78 53.3498 41.94C54.6698 40.06 55.3298 37.62 55.3298 34.62V21.6C54.7298 23.56 53.7298 25.06 52.3298 26.1C50.9298 27.14 49.1898 27.66 47.1098 27.66C44.0698 27.66 41.8298 26.68 40.3898 24.72C38.9898 22.72 38.2898 20.16 38.2898 17.04V13.32C38.2898 10.16 38.9898 7.6 40.3898 5.64C41.8298 3.64 44.0698 2.64 47.1098 2.64ZM47.1098 3.24C44.2698 3.24 42.1898 4.18 40.8698 6.06C39.5498 7.9 38.8898 10.32 38.8898 13.32V17.04C38.8898 20 39.5498 22.42 40.8698 24.3C42.1898 26.14 44.2698 27.06 47.1098 27.06C49.9498 27.06 52.0298 26.14 53.3498 24.3C54.6698 22.42 55.3298 20 55.3298 17.04V13.32C55.3298 10.32 54.6698 7.9 53.3498 6.06C52.0298 4.18 49.9498 3.24 47.1098 3.24Z" fill="black"/>
</svg>
