<svg width="80" height="50" viewBox="0 0 80 50" fill="none" xmlns="http://www.w3.org/2000/svg">
<path d="M4.56 3.12082C5.696 3.15282 6.528 3.55282 7.056 4.32082C7.584 5.08882 7.848 6.08082 7.848 7.29682V7.58482H7.608V7.29682C7.608 6.12882 7.352 5.18482 6.84 4.46482C6.344 3.72882 5.544 3.36082 4.44 3.36082C3.32 3.36082 2.512 3.72082 2.016 4.44082C1.52 5.16082 1.272 6.10482 1.272 7.27282C1.272 7.94482 1.416 8.53682 1.704 9.04882C2.008 9.56082 2.376 9.99282 2.808 10.3448C3.24 10.6968 3.816 11.1048 4.536 11.5688C5.272 12.0328 5.856 12.4488 6.288 12.8168C6.736 13.1688 7.112 13.6088 7.416 14.1368C7.72 14.6648 7.872 15.2808 7.872 15.9848C7.872 17.2008 7.6 18.1928 7.056 18.9608C6.528 19.7288 5.696 20.1288 4.56 20.1608V21.5528H4.32V20.1608C3.152 20.1448 2.296 19.7528 1.752 18.9848C1.224 18.2168 0.96 17.2168 0.96 15.9848V15.1928H1.2V15.9848C1.2 17.1688 1.456 18.1208 1.968 18.8408C2.48 19.5608 3.296 19.9208 4.416 19.9208C5.536 19.9208 6.352 19.5608 6.864 18.8408C7.376 18.1208 7.632 17.1688 7.632 15.9848C7.632 15.3128 7.488 14.7288 7.2 14.2328C6.912 13.7368 6.552 13.3208 6.12 12.9848C5.704 12.6488 5.136 12.2488 4.416 11.7848C3.664 11.3048 3.064 10.8808 2.616 10.5128C2.168 10.1448 1.792 9.69682 1.488 9.16882C1.184 8.62482 1.032 7.99282 1.032 7.27282C1.032 6.02482 1.296 5.03282 1.824 4.29682C2.368 3.56082 3.2 3.16882 4.32 3.12082V1.56082H4.56V3.12082Z" fill="#181818"/>
<path d="M63.992 34.4735L59.576 45.6735H59.896L64.312 34.4735H63.992ZM71.2106 40.2335V45.6735H71.5626V34.4735H71.2106V39.9135H67.1626V34.4735H66.8106V45.6735H67.1626V40.2335H71.2106ZM74.1219 34.4735V45.6735H74.4739V40.5055H75.8499C77.3059 40.5055 78.2979 40.9375 78.2979 42.5855V44.3455C78.2979 44.8255 78.3459 45.3215 78.5699 45.6735H78.9539C78.6979 45.3215 78.6499 44.7775 78.6499 44.3455V42.5855C78.6499 41.3535 78.1219 40.5375 76.8739 40.3455C78.1059 40.1215 78.6499 39.3695 78.6499 37.9935V36.9855C78.6499 35.4495 78.0099 34.4735 76.3459 34.4735H74.1219ZM74.4739 40.1695V34.8095H76.3299C77.7699 34.8095 78.2979 35.6575 78.2979 37.0175V38.0415C78.2979 39.7695 77.4019 40.1695 75.8499 40.1695H74.4739Z" fill="black"/>
<path d="M27.24 45H26.64V34.8H11.4V34.14L26.4 2.94H27.24V34.2H31.02V34.8H27.24V45ZM26.64 34.2V3.84L12 34.2H26.64ZM49.4536 2.64C52.4936 2.64 54.7136 3.64 56.1136 5.64C57.5536 7.6 58.2736 10.16 58.2736 13.32V34.62C58.2736 37.78 57.5536 40.36 56.1136 42.36C54.7136 44.32 52.4936 45.3 49.4536 45.3C46.4536 45.3 44.2336 44.34 42.7936 42.42C41.3536 40.46 40.6336 37.92 40.6336 34.8V34.56H41.2336V34.8C41.2336 37.76 41.8936 40.16 43.2136 42C44.5336 43.8 46.6136 44.7 49.4536 44.7C52.2936 44.7 54.3736 43.78 55.6936 41.94C57.0136 40.06 57.6736 37.62 57.6736 34.62V21.6C57.0736 23.56 56.0736 25.06 54.6736 26.1C53.2736 27.14 51.5336 27.66 49.4536 27.66C46.4136 27.66 44.1736 26.68 42.7336 24.72C41.3336 22.72 40.6336 20.16 40.6336 17.04V13.32C40.6336 10.16 41.3336 7.6 42.7336 5.64C44.1736 3.64 46.4136 2.64 49.4536 2.64ZM49.4536 3.24C46.6136 3.24 44.5336 4.18 43.2136 6.06C41.8936 7.9 41.2336 10.32 41.2336 13.32V17.04C41.2336 20 41.8936 22.42 43.2136 24.3C44.5336 26.14 46.6136 27.06 49.4536 27.06C52.2936 27.06 54.3736 26.14 55.6936 24.3C57.0136 22.42 57.6736 20 57.6736 17.04V13.32C57.6736 10.32 57.0136 7.9 55.6936 6.06C54.3736 4.18 52.2936 3.24 49.4536 3.24Z" fill="black"/>
</svg>
