<svg width="80" height="50" viewBox="0 0 80 50" fill="none" xmlns="http://www.w3.org/2000/svg">
<path d="M4.56 3.12082C5.696 3.15282 6.528 3.55282 7.056 4.32082C7.584 5.08882 7.848 6.08082 7.848 7.29682V7.58482H7.608V7.29682C7.608 6.12882 7.352 5.18482 6.84 4.46482C6.344 3.72882 5.544 3.36082 4.44 3.36082C3.32 3.36082 2.512 3.72082 2.016 4.44082C1.52 5.16082 1.272 6.10482 1.272 7.27282C1.272 7.94482 1.416 8.53682 1.704 9.04882C2.008 9.56082 2.376 9.99282 2.808 10.3448C3.24 10.6968 3.816 11.1048 4.536 11.5688C5.272 12.0328 5.856 12.4488 6.288 12.8168C6.736 13.1688 7.112 13.6088 7.416 14.1368C7.72 14.6648 7.872 15.2808 7.872 15.9848C7.872 17.2008 7.6 18.1928 7.056 18.9608C6.528 19.7288 5.696 20.1288 4.56 20.1608V21.5528H4.32V20.1608C3.152 20.1448 2.296 19.7528 1.752 18.9848C1.224 18.2168 0.96 17.2168 0.96 15.9848V15.1928H1.2V15.9848C1.2 17.1688 1.456 18.1208 1.968 18.8408C2.48 19.5608 3.296 19.9208 4.416 19.9208C5.536 19.9208 6.352 19.5608 6.864 18.8408C7.376 18.1208 7.632 17.1688 7.632 15.9848C7.632 15.3128 7.488 14.7288 7.2 14.2328C6.912 13.7368 6.552 13.3208 6.12 12.9848C5.704 12.6488 5.136 12.2488 4.416 11.7848C3.664 11.3048 3.064 10.8808 2.616 10.5128C2.168 10.1448 1.792 9.69682 1.488 9.16882C1.184 8.62482 1.032 7.99282 1.032 7.27282C1.032 6.02482 1.296 5.03282 1.824 4.29682C2.368 3.56082 3.2 3.16882 4.32 3.12082V1.56082H4.56V3.12082Z" fill="#181818"/>
<path d="M63.992 34.4735L59.576 45.6735H59.896L64.312 34.4735H63.992ZM71.2106 40.2335V45.6735H71.5626V34.4735H71.2106V39.9135H67.1626V34.4735H66.8106V45.6735H67.1626V40.2335H71.2106ZM74.1219 34.4735V45.6735H74.4739V40.5055H75.8499C77.3059 40.5055 78.2979 40.9375 78.2979 42.5855V44.3455C78.2979 44.8255 78.3459 45.3215 78.5699 45.6735H78.9539C78.6979 45.3215 78.6499 44.7775 78.6499 44.3455V42.5855C78.6499 41.3535 78.1219 40.5375 76.8739 40.3455C78.1059 40.1215 78.6499 39.3695 78.6499 37.9935V36.9855C78.6499 35.4495 78.0099 34.4735 76.3459 34.4735H74.1219ZM74.4739 40.1695V34.8095H76.3299C77.7699 34.8095 78.2979 35.6575 78.2979 37.0175V38.0415C78.2979 39.7695 77.4019 40.1695 75.8499 40.1695H74.4739Z" fill="black"/>
<path d="M19.98 2.7C23.1 2.7 25.32 3.7 26.64 5.7C27.96 7.66 28.62 10.26 28.62 13.5C28.62 15.18 28.3 16.74 27.66 18.18C27.02 19.62 26.22 20.92 25.26 22.08C24.3 23.24 22.98 24.7 21.3 26.46C19.34 28.5 17.74 30.3 16.5 31.86C15.3 33.38 14.26 35.18 13.38 37.26C12.5 39.34 12.04 41.66 12 44.22V44.4H28.44V45H11.4V44.7C11.4 41.94 11.84 39.46 12.72 37.26C13.6 35.06 14.66 33.16 15.9 31.56C17.18 29.96 18.84 28.1 20.88 25.98C22.48 24.34 23.76 22.94 24.72 21.78C25.68 20.62 26.46 19.34 27.06 17.94C27.7 16.54 28.02 15.06 28.02 13.5C28.02 6.66 25.34 3.24 19.98 3.24C17.14 3.24 15.1 4.22 13.86 6.18C12.62 8.1 12 10.58 12 13.62V15.6H11.4V13.62C11.4 10.42 12.08 7.8 13.44 5.76C14.8 3.72 16.98 2.7 19.98 2.7ZM47.0512 2.64C50.0912 2.64 52.3112 3.64 53.7112 5.64C55.1513 7.6 55.8713 10.16 55.8713 13.32V34.62C55.8713 37.78 55.1513 40.36 53.7112 42.36C52.3112 44.32 50.0912 45.3 47.0512 45.3C44.0512 45.3 41.8312 44.34 40.3912 42.42C38.9512 40.46 38.2312 37.92 38.2312 34.8V34.56H38.8312V34.8C38.8312 37.76 39.4912 40.16 40.8112 42C42.1312 43.8 44.2112 44.7 47.0512 44.7C49.8913 44.7 51.9713 43.78 53.2912 41.94C54.6112 40.06 55.2712 37.62 55.2712 34.62V21.6C54.6712 23.56 53.6713 25.06 52.2713 26.1C50.8712 27.14 49.1312 27.66 47.0512 27.66C44.0112 27.66 41.7712 26.68 40.3312 24.72C38.9312 22.72 38.2312 20.16 38.2312 17.04V13.32C38.2312 10.16 38.9312 7.6 40.3312 5.64C41.7712 3.64 44.0112 2.64 47.0512 2.64ZM47.0512 3.24C44.2112 3.24 42.1312 4.18 40.8112 6.06C39.4912 7.9 38.8312 10.32 38.8312 13.32V17.04C38.8312 20 39.4912 22.42 40.8112 24.3C42.1312 26.14 44.2112 27.06 47.0512 27.06C49.8913 27.06 51.9713 26.14 53.2912 24.3C54.6112 22.42 55.2712 20 55.2712 17.04V13.32C55.2712 10.32 54.6112 7.9 53.2912 6.06C51.9713 4.18 49.8913 3.24 47.0512 3.24Z" fill="black"/>
</svg>
